<svg id="Layer_1" data-name="Layer 1" xmlns="http://www.w3.org/2000/svg" xmlns:xlink="http://www.w3.org/1999/xlink" viewBox="0 0 2000 740.96"><defs><style>.cls-1{isolation:isolate;}.cls-2{fill:url(#linear-gradient);}.cls-3{fill:#a6a6a6;}.cls-4{fill:#4d4d4d;}.cls-5{fill:#eab300;}.cls-6{fill:#fff;}</style><linearGradient id="linear-gradient" x1="1000" y1="4.74" x2="1000" y2="750.42" gradientUnits="userSpaceOnUse"><stop offset="0" stop-color="#fff"/><stop offset="0.46" stop-color="#f1f2f2"/><stop offset="1" stop-color="#dbdcde"/></linearGradient></defs><title>bsv-accepted-here-full</title><g class="cls-1"><rect class="cls-2" y="0.48" width="2000" height="740" rx="175"/><path class="cls-3" d="M1825,9.48a163.84,163.84,0,0,1,64.43,13.09,167.73,167.73,0,0,1,88.48,88.48A163.81,163.81,0,0,1,1991,175.48v390a163.84,163.84,0,0,1-13.09,64.43,167.73,167.73,0,0,1-88.48,88.48A164,164,0,0,1,1825,731.48H175a164,164,0,0,1-64.43-13.09,167.73,167.73,0,0,1-88.48-88.48A163.84,163.84,0,0,1,9,565.48v-390a163.81,163.81,0,0,1,13.09-64.43,167.73,167.73,0,0,1,88.48-88.48A163.84,163.84,0,0,1,175,9.48H1825m0-9H175C78.75.48,0,79.23,0,175.48v390c0,96.25,78.75,175,175,175H1825c96.25,0,175-78.75,175-175v-390c0-96.25-78.75-175-175-175Z"/></g><g id="BSV_Logo" data-name="BSV Logo"><path class="cls-4" d="M533.82,450q-23.62,0-47.06-1.41a340.81,340.81,0,0,1-48.72-6.7V169.13a421.55,421.55,0,0,1,43.54-5.48q23.63-1.83,43.95-1.82a305.76,305.76,0,0,1,50.38,3.85q23,3.85,39.6,13.19a70,70,0,0,1,25.92,24.55q9.33,15.22,9.33,37.54,0,33.69-33.17,53.17,27.36,10.14,37.32,27.59t10,39.36q0,44.25-33,66.56T533.82,450Zm-32.75-174.5h31.51q29.85,0,42.71-7.51t12.85-24.15q0-17-13.27-23.94t-39-6.9q-8.31,0-17.83.2t-17,1Zm0,48.29v72.64q7,.83,15.34,1.22t18.24.4q29,0,46.86-8.11t17.83-30q0-19.49-14.93-27.8t-42.71-8.32Z"/><path class="cls-4" d="M759.4,171.16q0,16.64-11,26.17a40,40,0,0,1-51.83,0q-11-9.53-11-26.17t11-26.18a40,40,0,0,1,51.83,0Q759.39,154.52,759.4,171.16Zm-5.8,275.15H691.81V232.84H753.6Z"/><path class="cls-4" d="M788.83,179.68l61.79-9.74v62.9h74.22v50.33H850.62v75.07q0,19.1,6.84,30.44T885,400.05a120.29,120.29,0,0,0,20.52-1.83,107.21,107.21,0,0,0,19.28-5.07l8.71,47.08a177.43,177.43,0,0,1-24.88,7.7q-13.68,3.24-33.59,3.25-25.29,0-41.88-6.7t-26.53-18.67q-10-12-13.9-29a168.09,168.09,0,0,1-3.94-37.74Z"/><path class="cls-4" d="M935.62,339.58A123.57,123.57,0,0,1,943.29,296a103.72,103.72,0,0,1,22.19-35.71,105.9,105.9,0,0,1,35.24-24.15q20.73-8.93,47.27-8.93a155.67,155.67,0,0,1,31.93,3.05,158.67,158.67,0,0,1,28.2,8.72l-12.86,48.3a160.49,160.49,0,0,0-19.07-5.69,102,102,0,0,0-23.22-2.43q-27.37,0-40.84,16.64t-13.48,43.83q0,28.82,12.64,44.64t44.17,15.83a154.07,154.07,0,0,0,24-2,103.75,103.75,0,0,0,23.63-6.49l8.71,49.52a147.52,147.52,0,0,1-26.95,7.71,181.93,181.93,0,0,1-35.67,3.24q-29.85,0-51.42-8.72t-35.44-23.74A92,92,0,0,1,942.05,384,147.65,147.65,0,0,1,935.62,339.58Z"/><path class="cls-4" d="M1326.24,339.17q0,25.17-7.47,46.06A99.64,99.64,0,0,1,1297.2,421a96.93,96.93,0,0,1-33.79,22.93q-19.7,8.1-44.16,8.11-24,0-43.74-8.11a96.88,96.88,0,0,1-33.8-22.93,104.47,104.47,0,0,1-22-35.72q-7.87-20.89-7.88-46.06t8.09-45.86a103.58,103.58,0,0,1,22.39-35.3,100.84,100.84,0,0,1,34-22.73,111.55,111.55,0,0,1,42.92-8.12,112.7,112.7,0,0,1,43.33,8.12A98.51,98.51,0,0,1,1296.37,258a102.69,102.69,0,0,1,22,35.3Q1326.23,314,1326.24,339.17Zm-63,0q0-28-11.4-44t-32.55-16q-21.15,0-32.76,16t-11.61,44q0,28,11.61,44.44t32.76,16.44q21.15,0,32.55-16.44T1263.2,339.17Z"/><path class="cls-4" d="M1420.78,171.16q0,16.64-11,26.17a40,40,0,0,1-51.83,0q-11-9.53-11-26.17T1358,145a40,40,0,0,1,51.83,0Q1420.78,154.52,1420.78,171.16ZM1415,446.31h-61.79V232.84H1415Z"/><path class="cls-4" d="M1452.28,240.15q15.75-4.47,40.64-8.32a341,341,0,0,1,52.24-3.85q27.78,0,46.24,7.09t29.23,20.1A77.52,77.52,0,0,1,1636,286a160.83,160.83,0,0,1,4.56,39.77V446.31h-61.78V333.09q0-29.22-7.88-41.4t-29.44-12.18q-6.63,0-14.1.61t-13.27,1.42V446.31h-61.78Z"/><path class="cls-5" d="M1813.74,359.13q-12.54-24-25.45-56.1t-24.47-70h38.71q2.46,9.35,5.78,20.26t6.89,22.06q3.57,11.16,7.14,21.7t7,19.18q3.2-8.62,6.88-19.18t7.25-21.7q3.57-11.15,6.89-22.06t5.78-20.26h37.75q-11.55,37.89-24.45,70T1844,359.13Z"/><path class="cls-5" d="M1756.84,310.81a28.06,28.06,0,0,0-6.37-10.88,47.13,47.13,0,0,0-12.37-9.14,152.13,152.13,0,0,0-19.84-8.58c-3.92-1.44-7.15-2.78-9.68-4a42,42,0,0,1-6-3.38,8.23,8.23,0,0,1-2.94-3.23,9.5,9.5,0,0,1-.74-3.84q0-9.34,17.15-9.35a77.33,77.33,0,0,1,16.78,1.67,141.16,141.16,0,0,1,13.84,3.84l6.39,2.42,0-30.23a106.34,106.34,0,0,0-17.15-4.44,121.72,121.72,0,0,0-22.53-2q-23.52,0-37,10.32t-13.47,28a40.59,40.59,0,0,0,2.69,15.58,32.46,32.46,0,0,0,7.6,11.15,45.72,45.72,0,0,0,11.88,8q7,3.36,15.56,6.47a103.36,103.36,0,0,1,16.41,7.31q5.38,3.24,5.39,7.55,0,5.52-4.16,7.44t-14.21,1.92a94.88,94.88,0,0,1-19.36-2,121.56,121.56,0,0,1-19.09-5.63V357q4,1.2,9.66,2.64,11.4,2.86,28.54,2.88,26.22,0,40.55-9.57t14.33-28.23A47.24,47.24,0,0,0,1756.84,310.81Z"/><path class="cls-5" d="M399.36,294.45A144.07,144.07,0,0,1,244.1,449.71c-69.82-5.51-126.38-62.08-131.88-131.89A144.08,144.08,0,0,1,267.49,162.57C337.29,168.09,393.85,224.64,399.36,294.45Z"/><path class="cls-6" d="M297.07,301c8.58-5.89,14.47-12.52,14.47-25,0-19.86-19.75-29.18-31.78-30.36-1-.11-3.71-.15-3.71-.15l0-19-19.55,0,0,19-13.1,0,0-18.93h-20l0,18.84c-3.51.08-24.59.06-24.59.06v16.81s5.33,0,6.86,0c6.6,0,9.58,4.17,9.58,7.07v73.57a4.86,4.86,0,0,1-4.43,4.69c-3,.13-7.45,0-7.45,0l-3.85,19.07,24,0V385.8H243.5l0-19.09h13.1l0,19.13h19.53l0-19,1.43,0c22.55,0,42.2-13.35,42.5-35C320.28,314.12,305.13,303.89,297.07,301Zm-53.62-8.58V263.57c2.68,0,12.54,0,18.43,0,.55,0,1,.1,1.53.12,8,.39,13,3.57,15.68,7.4a14,14,0,0,1,2.63,7.87,19.34,19.34,0,0,1-1,5.75,14.7,14.7,0,0,1-2.46,4.45,12.82,12.82,0,0,1-3.05,2.88c-3,2.1-7.18,3.75-13.22,4-.08,0-18.25,0-18.54,0Zm44.13,42.82a15.79,15.79,0,0,1-2.65,4.8,14.17,14.17,0,0,1-3.3,3.11c-3.24,2.27-7.77,4.05-14.29,4.37-.08,0-23.58.05-23.89,0v-35.2c2.89,0,17.41,0,23.77,0,.6,0,1.09.1,1.66.13,8.66.42,14.05,3.86,16.94,8a15.16,15.16,0,0,1,2.84,8.51A20.69,20.69,0,0,1,287.58,335.23Z"/></g><g id="Accepted_Here" data-name="Accepted Here"><path class="cls-4" d="M840.07,578.83,827,602.55H812.88Q827.81,575.63,842,553t28.06-42.79h12.66q2,10,3.67,20.2t3.26,21.39q1.61,11.21,3.07,23.73t3.07,27.06H882.73c-.44-4-.84-8-1.2-12.06s-.75-7.93-1.2-11.66Zm39.06-10.4q-1.07-10.8-2.46-21.47t-3.27-22q-4.67,6.79-11.6,17.53t-15.73,25.93Z"/><path class="cls-4" d="M942.52,604.55A42.43,42.43,0,0,1,927.25,602a29.22,29.22,0,0,1-11-7.2,29.78,29.78,0,0,1-6.6-11.26,46.76,46.76,0,0,1-2.2-14.87,69.17,69.17,0,0,1,3.8-22.93,61.3,61.3,0,0,1,10.8-19.33A52.69,52.69,0,0,1,938.92,513a47.86,47.86,0,0,1,22-5q10.4,0,16.59,2.13a38.36,38.36,0,0,1,8.87,4L981,524.84a37.62,37.62,0,0,0-8.33-3.8,38.6,38.6,0,0,0-12.46-1.8,31.84,31.84,0,0,0-16.53,4.33,41.49,41.49,0,0,0-12.4,11.2,51.55,51.55,0,0,0-7.73,15.46,57.09,57.09,0,0,0-2.67,17q0,26,22.53,26a50.55,50.55,0,0,0,8.6-.66,61.88,61.88,0,0,0,6.73-1.54,35.59,35.59,0,0,0,5.2-1.93l4-1.87,1.6,11.2a35.29,35.29,0,0,1-4.2,2,50.85,50.85,0,0,1-6.07,2,65.64,65.64,0,0,1-16.79,2.13Z"/><path class="cls-4" d="M1020.37,604.55a42.37,42.37,0,0,1-15.26-2.53,29.26,29.26,0,0,1-11-7.2,30,30,0,0,1-6.6-11.26,46.76,46.76,0,0,1-2.2-14.87,69.42,69.42,0,0,1,3.8-22.93,61.3,61.3,0,0,1,10.8-19.33A52.69,52.69,0,0,1,1016.77,513a47.89,47.89,0,0,1,22-5q10.39,0,16.6,2.13a38.24,38.24,0,0,1,8.86,4l-5.33,10.67a37.83,37.83,0,0,0-8.33-3.8,38.7,38.7,0,0,0-12.47-1.8,31.87,31.87,0,0,0-16.53,4.33,41.49,41.49,0,0,0-12.4,11.2,51.55,51.55,0,0,0-7.73,15.46,57.08,57.08,0,0,0-2.66,17q0,26,22.52,26a50.55,50.55,0,0,0,8.6-.66,61.34,61.34,0,0,0,6.73-1.54,35.59,35.59,0,0,0,5.2-1.93l4-1.87,1.6,11.2a33.83,33.83,0,0,1-4.2,2,50.65,50.65,0,0,1-6.06,2,65.64,65.64,0,0,1-16.8,2.13Z"/><path class="cls-4" d="M1060.9,602.55,1083,510.17h54.52L1135,521h-41.73l-6.67,27.86h37.06l-2.53,10.53h-36.93l-7.86,32.4h44.79l-2.53,10.79Z"/><path class="cls-4" d="M1182.07,509.24q16.13,0,24.33,6.13t8.2,17.86a33.76,33.76,0,0,1-3.4,15.67,29.13,29.13,0,0,1-9.66,10.86,44.4,44.4,0,0,1-15.07,6.33,85.66,85.66,0,0,1-19.59,2.07h-9.2l-8.27,34.39h-12.93l21.86-91.18a69.93,69.93,0,0,1,11.87-1.73Q1176.47,509.24,1182.07,509.24Zm-1.6,10.93q-9.46,0-11.46.53l-8.8,36.66h8.4a67.78,67.78,0,0,0,11.46-1,33.61,33.61,0,0,0,10.53-3.53,21.45,21.45,0,0,0,7.67-7q3-4.47,3-11.53,0-7.6-5.6-10.87T1180.47,520.17Z"/><path class="cls-4" d="M1292.72,510.17l-2.53,10.8h-27.87l-19.59,81.58H1229.8L1249.39,521h-27.86l2.53-10.8Z"/><path class="cls-4" d="M1285.65,602.55l22.13-92.38h54.52l-2.53,10.8h-41.72l-6.67,27.86h37.06l-2.53,10.53H1309l-7.86,32.4h44.79l-2.53,10.79Z"/><path class="cls-4" d="M1406.83,509.24q20.52,0,30.66,9.66T1447.62,545A68.16,68.16,0,0,1,1444,567a51.25,51.25,0,0,1-11.2,18.73,53.82,53.82,0,0,1-19.39,12.93q-11.81,4.8-28.2,4.8-5.6,0-12.13-.54a63.66,63.66,0,0,1-11.46-1.86l21.46-89.72a69.81,69.81,0,0,1,11.86-1.73Q1401.23,509.24,1406.83,509.24Zm-1.07,10.93q-10,0-12,.53l-17.06,71.19a25.37,25.37,0,0,0,3.6.47c1.69.13,4.44.2,8.27.2a48.8,48.8,0,0,0,19-3.54,40.38,40.38,0,0,0,14.33-9.86,44.21,44.21,0,0,0,9.07-15.07,55.25,55.25,0,0,0,3.2-19.13q0-11.73-6.8-18.26T1405.76,520.17Z"/><path class="cls-4" d="M1555.47,602.55h-12.93l10.26-42.92H1510l-10.27,42.92h-12.93l22.13-92.38h12.93l-9.33,38.66h42.79l9.33-38.66h12.93Z"/><path class="cls-4" d="M1575.93,602.55l22.13-92.38h54.52l-2.53,10.8h-41.73l-6.66,27.86h37.06l-2.54,10.53h-36.92l-7.87,32.4h44.79l-2.53,10.79Z"/><path class="cls-4" d="M1697.1,509.24q14.81,0,23.47,6t8.66,17.59q0,11.73-6.86,19.67t-19.27,11.39c1.07,1.87,2.31,4.25,3.74,7.14s2.88,6.08,4.4,9.59,3,7.16,4.39,10.94,2.67,7.44,3.74,11h-13.2c-1.25-3.37-2.53-6.79-3.87-10.26s-2.69-6.8-4.06-10-2.76-6.2-4.13-9-2.65-5.26-3.8-7.4c-1.16.09-2.32.16-3.47.2s-2.31.07-3.47.07h-10.26l-8.67,36.39h-12.93l21.87-91.18a69.66,69.66,0,0,1,11.86-1.73Q1691.51,509.24,1697.1,509.24Zm-1.6,10.93q-9.46,0-11.46.53l-8.4,34.93h7.87a81.66,81.66,0,0,0,11.2-.8,34.27,34.27,0,0,0,10.46-3.13,20.54,20.54,0,0,0,7.73-6.54q3-4.18,3-11.13,0-7.46-5.66-10.66T1695.5,520.17Z"/><path class="cls-4" d="M1734,602.55l22.13-92.38h54.52l-2.53,10.8h-41.73l-6.66,27.86h37.06l-2.53,10.53h-36.93l-7.87,32.4h44.8l-2.54,10.79Z"/></g></svg>