<svg id="Layer_1" data-name="Layer 1" xmlns="http://www.w3.org/2000/svg" xmlns:xlink="http://www.w3.org/1999/xlink" viewBox="0 0 2000 740.96"><defs><style>.cls-1{isolation:isolate;}.cls-2{fill:url(#linear-gradient);}.cls-3{fill:#a6a6a6;}.cls-4{fill:#4d4d4d;}.cls-5{fill:#eab300;}.cls-6{fill:#fff;}</style><linearGradient id="linear-gradient" x1="1000" y1="9.19" x2="1000" y2="745.8" gradientUnits="userSpaceOnUse"><stop offset="0" stop-color="#fff"/><stop offset="0.46" stop-color="#f1f2f2"/><stop offset="1" stop-color="#dbdcde"/></linearGradient></defs><title>bsv-donations-accepted-full</title><g class="cls-1"><path class="cls-2" d="M175,736A171,171,0,0,1,4.5,565.48v-390A171,171,0,0,1,175,5H1825a171,171,0,0,1,170.5,170.5v390A171,171,0,0,1,1825,736Z"/><path class="cls-3" d="M1825,9.48a163.84,163.84,0,0,1,64.43,13.09,167.73,167.73,0,0,1,88.48,88.48A163.81,163.81,0,0,1,1991,175.48v390a163.84,163.84,0,0,1-13.09,64.43,167.73,167.73,0,0,1-88.48,88.48A164,164,0,0,1,1825,731.48H175a164,164,0,0,1-64.43-13.09,167.73,167.73,0,0,1-88.48-88.48A163.84,163.84,0,0,1,9,565.48v-390a163.81,163.81,0,0,1,13.09-64.43,167.73,167.73,0,0,1,88.48-88.48A163.84,163.84,0,0,1,175,9.48H1825m0-9H175C78.75.48,0,79.23,0,175.48v390c0,96.25,78.75,175,175,175H1825c96.25,0,175-78.75,175-175v-390c0-96.25-78.75-175-175-175Z"/></g><g id="BSV_Logo" data-name="BSV Logo"><path class="cls-4" d="M533.82,450q-23.62,0-47.06-1.41a340.81,340.81,0,0,1-48.72-6.7V169.13a421.55,421.55,0,0,1,43.54-5.48q23.63-1.83,43.95-1.82a305.76,305.76,0,0,1,50.38,3.85q23,3.85,39.6,13.19a70,70,0,0,1,25.92,24.55q9.33,15.22,9.33,37.54,0,33.69-33.17,53.17,27.36,10.14,37.32,27.59t10,39.36q0,44.25-33,66.56T533.82,450Zm-32.75-174.5h31.51q29.85,0,42.71-7.51t12.85-24.15q0-17-13.27-23.94t-39-6.9q-8.31,0-17.83.2t-17,1Zm0,48.29v72.64q7,.83,15.34,1.22t18.24.4q29,0,46.86-8.11t17.83-30q0-19.49-14.93-27.8t-42.71-8.32Z"/><path class="cls-4" d="M759.4,171.16q0,16.64-11,26.17a40,40,0,0,1-51.83,0q-11-9.53-11-26.17t11-26.18a40,40,0,0,1,51.83,0Q759.39,154.52,759.4,171.16Zm-5.8,275.15H691.81V232.84H753.6Z"/><path class="cls-4" d="M788.83,179.68l61.79-9.74v62.9h74.22v50.33H850.62v75.07q0,19.1,6.84,30.44T885,400.05a120.29,120.29,0,0,0,20.52-1.83,107.21,107.21,0,0,0,19.28-5.07l8.71,47.08a177.43,177.43,0,0,1-24.88,7.7q-13.68,3.24-33.59,3.25-25.29,0-41.88-6.7t-26.53-18.67q-10-12-13.9-29a168.09,168.09,0,0,1-3.94-37.74Z"/><path class="cls-4" d="M935.62,339.58A123.57,123.57,0,0,1,943.29,296a103.72,103.72,0,0,1,22.19-35.71,105.9,105.9,0,0,1,35.24-24.15q20.73-8.93,47.27-8.93a155.67,155.67,0,0,1,31.93,3.05,158.67,158.67,0,0,1,28.2,8.72l-12.86,48.3a160.49,160.49,0,0,0-19.07-5.69,102,102,0,0,0-23.22-2.43q-27.37,0-40.84,16.64t-13.48,43.83q0,28.82,12.64,44.64t44.17,15.83a154.07,154.07,0,0,0,24-2,103.75,103.75,0,0,0,23.63-6.49l8.71,49.52a147.52,147.52,0,0,1-26.95,7.71,181.93,181.93,0,0,1-35.67,3.24q-29.85,0-51.42-8.72t-35.44-23.74A92,92,0,0,1,942.05,384,147.65,147.65,0,0,1,935.62,339.58Z"/><path class="cls-4" d="M1326.24,339.17q0,25.17-7.47,46.06A99.64,99.64,0,0,1,1297.2,421a96.93,96.93,0,0,1-33.79,22.93q-19.7,8.1-44.16,8.11-24,0-43.74-8.11a96.88,96.88,0,0,1-33.8-22.93,104.47,104.47,0,0,1-22-35.72q-7.87-20.89-7.88-46.06t8.09-45.86a103.58,103.58,0,0,1,22.39-35.3,100.84,100.84,0,0,1,34-22.73,111.55,111.55,0,0,1,42.92-8.12,112.7,112.7,0,0,1,43.33,8.12A98.51,98.51,0,0,1,1296.37,258a102.69,102.69,0,0,1,22,35.3Q1326.23,314,1326.24,339.17Zm-63,0q0-28-11.4-44t-32.55-16q-21.15,0-32.76,16t-11.61,44q0,28,11.61,44.44t32.76,16.44q21.15,0,32.55-16.44T1263.2,339.17Z"/><path class="cls-4" d="M1420.78,171.16q0,16.64-11,26.17a40,40,0,0,1-51.83,0q-11-9.53-11-26.17T1358,145a40,40,0,0,1,51.83,0Q1420.78,154.52,1420.78,171.16ZM1415,446.31h-61.79V232.84H1415Z"/><path class="cls-4" d="M1452.28,240.15q15.75-4.47,40.64-8.32a341,341,0,0,1,52.24-3.85q27.78,0,46.24,7.09t29.23,20.1A77.52,77.52,0,0,1,1636,286a160.83,160.83,0,0,1,4.56,39.77V446.31h-61.78V333.09q0-29.22-7.88-41.4t-29.44-12.18q-6.63,0-14.1.61t-13.27,1.42V446.31h-61.78Z"/><path class="cls-5" d="M1813.74,359.13q-12.54-24-25.45-56.1t-24.47-70h38.71q2.46,9.35,5.78,20.26t6.89,22.06q3.57,11.16,7.14,21.7t7,19.18q3.2-8.62,6.88-19.18t7.25-21.7q3.57-11.15,6.89-22.06t5.78-20.26h37.75q-11.55,37.89-24.45,70T1844,359.13Z"/><path class="cls-5" d="M1756.84,310.81a28.06,28.06,0,0,0-6.37-10.88,47.13,47.13,0,0,0-12.37-9.14,152.13,152.13,0,0,0-19.84-8.58c-3.92-1.44-7.15-2.78-9.68-4a42,42,0,0,1-6-3.38,8.23,8.23,0,0,1-2.94-3.23,9.5,9.5,0,0,1-.74-3.84q0-9.34,17.15-9.35a77.33,77.33,0,0,1,16.78,1.67,141.16,141.16,0,0,1,13.84,3.84l6.39,2.42,0-30.23a106.34,106.34,0,0,0-17.15-4.44,121.72,121.72,0,0,0-22.53-2q-23.52,0-37,10.32t-13.47,28a40.59,40.59,0,0,0,2.69,15.58,32.46,32.46,0,0,0,7.6,11.15,45.72,45.72,0,0,0,11.88,8q7,3.36,15.56,6.47a103.36,103.36,0,0,1,16.41,7.31q5.38,3.24,5.39,7.55,0,5.52-4.16,7.44t-14.21,1.92a94.88,94.88,0,0,1-19.36-2,121.56,121.56,0,0,1-19.09-5.63V357q4,1.2,9.66,2.64,11.4,2.86,28.54,2.88,26.22,0,40.55-9.57t14.33-28.23A47.24,47.24,0,0,0,1756.84,310.81Z"/><path class="cls-5" d="M399.36,294.45A144.07,144.07,0,0,1,244.1,449.71c-69.82-5.51-126.38-62.08-131.88-131.89A144.08,144.08,0,0,1,267.49,162.57C337.29,168.09,393.85,224.64,399.36,294.45Z"/><path class="cls-6" d="M297.07,301c8.58-5.89,14.47-12.52,14.47-25,0-19.86-19.75-29.18-31.78-30.36-1-.11-3.71-.15-3.71-.15l0-19-19.55,0,0,19-13.1,0,0-18.93h-20l0,18.84c-3.51.08-24.59.06-24.59.06v16.81s5.33,0,6.86,0c6.6,0,9.58,4.17,9.58,7.07v73.57a4.86,4.86,0,0,1-4.43,4.69c-3,.13-7.45,0-7.45,0l-3.85,19.07,24,0V385.8H243.5l0-19.09h13.1l0,19.13h19.53l0-19,1.43,0c22.55,0,42.2-13.35,42.5-35C320.28,314.12,305.13,303.89,297.07,301Zm-53.62-8.58V263.57c2.68,0,12.54,0,18.43,0,.55,0,1,.1,1.53.12,8,.39,13,3.57,15.68,7.4a14,14,0,0,1,2.63,7.87,19.34,19.34,0,0,1-1,5.75,14.7,14.7,0,0,1-2.46,4.45,12.82,12.82,0,0,1-3.05,2.88c-3,2.1-7.18,3.75-13.22,4-.08,0-18.25,0-18.54,0Zm44.13,42.82a15.79,15.79,0,0,1-2.65,4.8,14.17,14.17,0,0,1-3.3,3.11c-3.24,2.27-7.77,4.05-14.29,4.37-.08,0-23.58.05-23.89,0v-35.2c2.89,0,17.41,0,23.77,0,.6,0,1.09.1,1.66.13,8.66.42,14.05,3.86,16.94,8a15.16,15.16,0,0,1,2.84,8.51A20.69,20.69,0,0,1,287.58,335.23Z"/></g><path class="cls-4" d="M637.38,507.22q18.12,0,27.06,8.49t8.94,22.9A59.59,59.59,0,0,1,670.2,558a44.87,44.87,0,0,1-9.88,16.46,47.56,47.56,0,0,1-17.12,11.36Q632.79,590,618.32,590q-5,0-10.71-.47a56.92,56.92,0,0,1-10.12-1.64l18.94-78.84a62.35,62.35,0,0,1,10.48-1.52C630.59,507.33,634.08,507.22,637.38,507.22Zm-.94,9.6q-8.84,0-10.59.47l-15.06,62.56a21.63,21.63,0,0,0,3.17.41c1.49.12,3.93.17,7.3.17a43.3,43.3,0,0,0,16.76-3.1,35.76,35.76,0,0,0,12.65-8.67,38.85,38.85,0,0,0,8-13.24,48.1,48.1,0,0,0,2.83-16.81q0-10.3-6-16.05T636.44,516.82Z"/><path class="cls-4" d="M729.74,506.16a35.6,35.6,0,0,1,11.94,1.94,25.24,25.24,0,0,1,9.41,5.8,26,26,0,0,1,6.12,9.66,38.47,38.47,0,0,1,2.18,13.53,64.51,64.51,0,0,1-3,19.33,55.32,55.32,0,0,1-8.89,17.28,46,46,0,0,1-14.7,12.47A42.35,42.35,0,0,1,712.21,591a35.37,35.37,0,0,1-12-1.94,25.34,25.34,0,0,1-9.36-5.79,26.17,26.17,0,0,1-6.12-9.67,38.44,38.44,0,0,1-2.17-13.53,65.93,65.93,0,0,1,2.94-19.27,53.56,53.56,0,0,1,8.88-17.34A46.56,46.56,0,0,1,709.15,511,42.41,42.41,0,0,1,729.74,506.16Zm-16.36,75a27.16,27.16,0,0,0,14.24-3.81,36.15,36.15,0,0,0,10.76-9.9,46.45,46.45,0,0,0,6.77-13.71,51.24,51.24,0,0,0,2.35-15.22q0-10.43-4.53-16.46t-14.41-6a27,27,0,0,0-14.29,3.81,36.33,36.33,0,0,0-10.71,9.9,46.69,46.69,0,0,0-6.77,13.71,51.24,51.24,0,0,0-2.35,15.22q0,10.44,4.53,16.46T713.38,581.14Z"/><path class="cls-4" d="M815.74,589.22q-2.12-6.79-5.06-15.46t-6.41-17.58q-3.46-8.89-7.12-17.27A154.68,154.68,0,0,0,790,524.32l-15.65,64.9H763.15L782.68,508h9.77q3.76,6.33,7.7,14.35t7.53,16.46q3.6,8.43,6.65,16.52t5.06,14.52L834,508h11.18l-19.42,81.18Z"/><path class="cls-4" d="M860.92,568.37l-11.53,20.85H836.92q13.19-23.65,25.71-43.58T887.4,508h11.17q1.77,8.79,3.24,17.75t2.88,18.8q1.41,9.84,2.71,20.85t2.7,23.78H898.57c-.39-3.51-.74-7.05-1.06-10.6s-.66-7-1-10.25Zm34.48-9.14q-.95-9.5-2.18-18.86T890.34,521q-4.12,6-10.24,15.41t-13.88,22.78Z"/><path class="cls-4" d="M982.23,508,980,517.53H955.4l-17.3,71.69H926.69L944,517.53H919.4l2.23-9.49Z"/><path class="cls-4" d="M994.34,508h11.42l-19.53,81.18H974.81Z"/><path class="cls-4" d="M1058,506.16a35.62,35.62,0,0,1,12,1.94,25.32,25.32,0,0,1,9.41,5.8,26.3,26.3,0,0,1,6.12,9.66,38.48,38.48,0,0,1,2.17,13.53,64.51,64.51,0,0,1-3,19.33,55.3,55.3,0,0,1-8.88,17.28,45.9,45.9,0,0,1-14.71,12.47,42.32,42.32,0,0,1-20.59,4.81,35.45,35.45,0,0,1-12-1.94,25.22,25.22,0,0,1-9.35-5.79,26.17,26.17,0,0,1-6.12-9.67,38.43,38.43,0,0,1-2.18-13.53,65.61,65.61,0,0,1,3-19.27,53.36,53.36,0,0,1,8.88-17.34A46.63,46.63,0,0,1,1037.4,511,42.46,42.46,0,0,1,1058,506.16Zm-16.35,75a27.18,27.18,0,0,0,14.24-3.81,36.15,36.15,0,0,0,10.76-9.9,46.69,46.69,0,0,0,6.77-13.71,51.56,51.56,0,0,0,2.35-15.22q0-10.43-4.53-16.46t-14.41-6a27.07,27.07,0,0,0-14.3,3.81,36.46,36.46,0,0,0-10.71,9.9,46.67,46.67,0,0,0-6.76,13.71,51.24,51.24,0,0,0-2.35,15.22q0,10.44,4.53,16.46T1041.64,581.14Z"/><path class="cls-4" d="M1144,589.22q-2.12-6.79-5.06-15.46t-6.41-17.58q-3.48-8.89-7.12-17.27a152.17,152.17,0,0,0-7.18-14.59l-15.65,64.9h-11.17L1110.94,508h9.76q3.77,6.33,7.71,14.35t7.53,16.46q3.58,8.43,6.65,16.52t5.06,14.52L1162.24,508h11.17L1154,589.22Z"/><path class="cls-4" d="M1192.94,581.14a35.25,35.25,0,0,0,7.24-.76,19.88,19.88,0,0,0,6.41-2.52,14.11,14.11,0,0,0,4.59-4.63,13.27,13.27,0,0,0,1.77-7.09,11,11,0,0,0-1.12-5.09,13.16,13.16,0,0,0-3.06-3.87,26.57,26.57,0,0,0-4.59-3.16c-1.76-1-3.71-2-5.82-3.11-1.81-.93-3.63-1.95-5.47-3a21.37,21.37,0,0,1-5-4,19.55,19.55,0,0,1-3.53-5.69,20.53,20.53,0,0,1-1.35-7.84,22.94,22.94,0,0,1,2.06-9.73,21.21,21.21,0,0,1,6.06-7.67,28.56,28.56,0,0,1,9.82-5,46.4,46.4,0,0,1,13.36-1.76,41,41,0,0,1,6.7.53,43.59,43.59,0,0,1,5.83,1.35,44.83,44.83,0,0,1,4.65,1.7,15.53,15.53,0,0,1,2.94,1.58l-5.3,8.9a19.3,19.3,0,0,0-6.41-3,36.1,36.1,0,0,0-10.41-1.34,30.34,30.34,0,0,0-7,.76,16.23,16.23,0,0,0-5.59,2.4,12.34,12.34,0,0,0-3.77,4.16,13.91,13.91,0,0,0-.47,11.13,12,12,0,0,0,2.59,3.63,18.38,18.38,0,0,0,4.06,2.87c1.61.86,3.35,1.76,5.24,2.69q3.52,1.77,6.64,3.58a25,25,0,0,1,5.48,4.27,18.5,18.5,0,0,1,3.7,5.74,21,21,0,0,1,1.35,8,24.1,24.1,0,0,1-2.53,11.3,23,23,0,0,1-6.94,8.09,31.8,31.8,0,0,1-10.47,4.86,50.21,50.21,0,0,1-13.12,1.64,51.48,51.48,0,0,1-8.53-.65,46.44,46.44,0,0,1-6.7-1.58,36.13,36.13,0,0,1-4.89-1.93,18.75,18.75,0,0,1-3.06-1.82l5.3-9.25a38.9,38.9,0,0,0,7.06,3.45A33.1,33.1,0,0,0,1192.94,581.14Z"/><path class="cls-4" d="M1277.19,568.37l-11.53,20.85h-12.48q13.18-23.65,25.71-43.58t24.77-37.6h11.17q1.77,8.79,3.24,17.75t2.88,18.8q1.41,9.84,2.71,20.85t2.71,23.78h-11.54c-.39-3.51-.74-7.05-1-10.6s-.67-7-1.06-10.25Zm34.47-9.14q-.95-9.5-2.18-18.86T1306.6,521q-4.12,6-10.24,15.41t-13.88,22.78Z"/><path class="cls-4" d="M1367.07,591a37.65,37.65,0,0,1-13.47-2.23,25.86,25.86,0,0,1-9.71-6.32,26.61,26.61,0,0,1-5.82-9.9,41.17,41.17,0,0,1-1.94-13.07,60.8,60.8,0,0,1,3.35-20.14,53.84,53.84,0,0,1,9.53-17,46.51,46.51,0,0,1,14.89-11.77,42.43,42.43,0,0,1,19.41-4.4q9.18,0,14.65,1.88a33.82,33.82,0,0,1,7.82,3.51l-4.7,9.37a33.68,33.68,0,0,0-7.36-3.33,34.05,34.05,0,0,0-11-1.59,28.21,28.21,0,0,0-14.59,3.81,36.64,36.64,0,0,0-10.94,9.84,45,45,0,0,0-6.82,13.59,50,50,0,0,0-2.36,14.94Q1348,581,1367.9,581a43.49,43.49,0,0,0,7.59-.59,54.29,54.29,0,0,0,5.94-1.34,33.93,33.93,0,0,0,4.59-1.7c1.33-.63,2.51-1.17,3.52-1.64l1.42,9.84a30.82,30.82,0,0,1-3.71,1.76,44.9,44.9,0,0,1-5.35,1.75,56.17,56.17,0,0,1-6.83,1.35A57.88,57.88,0,0,1,1367.07,591Z"/><path class="cls-4" d="M1434.61,591a37.65,37.65,0,0,1-13.47-2.23,25.78,25.78,0,0,1-9.71-6.32,26.34,26.34,0,0,1-5.82-9.9,40.89,40.89,0,0,1-1.94-13.07,60.54,60.54,0,0,1,3.35-20.14,53.64,53.64,0,0,1,9.53-17,46.58,46.58,0,0,1,14.88-11.77,42.49,42.49,0,0,1,19.41-4.4q9.18,0,14.65,1.88a33.94,33.94,0,0,1,7.83,3.51l-4.71,9.37a33.58,33.58,0,0,0-7.35-3.33,34.09,34.09,0,0,0-11-1.59,28.18,28.18,0,0,0-14.59,3.81,36.68,36.68,0,0,0-11,9.84,45.18,45.18,0,0,0-6.82,13.59,50,50,0,0,0-2.35,14.94q0,22.85,19.88,22.84a43.33,43.33,0,0,0,7.59-.59,53.25,53.25,0,0,0,5.94-1.34,33,33,0,0,0,4.59-1.7c1.33-.63,2.51-1.17,3.53-1.64l1.41,9.84a30.59,30.59,0,0,1-3.7,1.76,45.1,45.1,0,0,1-5.36,1.75,56,56,0,0,1-6.82,1.35A58,58,0,0,1,1434.61,591Z"/><path class="cls-4" d="M1469.2,589.22,1488.73,508h48.12l-2.23,9.49h-36.83L1491.91,542h32.7l-2.23,9.25h-32.59l-6.94,28.47h39.53l-2.24,9.49Z"/><path class="cls-4" d="M1575,507.22q14.23,0,21.47,5.39t7.24,15.69a29.6,29.6,0,0,1-3,13.77,25.72,25.72,0,0,1-8.53,9.55,39.5,39.5,0,0,1-13.3,5.56,76,76,0,0,1-17.29,1.82h-8.12l-7.3,30.22h-11.41l19.3-80.13a62.08,62.08,0,0,1,10.47-1.52C1568.18,507.33,1571.68,507.22,1575,507.22Zm-1.41,9.6q-8.36,0-10.12.47l-7.77,32.22h7.42a61.17,61.17,0,0,0,10.12-.88,29.92,29.92,0,0,0,9.29-3.11,18.81,18.81,0,0,0,6.76-6.15,17.71,17.71,0,0,0,2.65-10.13q0-6.68-4.94-9.55T1573.56,516.82Z"/><path class="cls-4" d="M1673.68,508l-2.23,9.49h-24.59l-17.3,71.69h-11.41l17.3-71.69h-24.59l2.23-9.49Z"/><path class="cls-4" d="M1666.27,589.22,1685.8,508h48.12l-2.23,9.49h-36.83L1689,542h32.71l-2.24,9.25h-32.59l-6.94,28.47h39.53l-2.23,9.49Z"/><path class="cls-4" d="M1772,507.22q18.12,0,27.06,8.49t9,22.9a59.59,59.59,0,0,1-3.18,19.39,45,45,0,0,1-9.88,16.46,47.64,47.64,0,0,1-17.12,11.36Q1767.45,590,1753,590q-4.93,0-10.7-.47a56.77,56.77,0,0,1-10.12-1.64l18.94-78.84a62.08,62.08,0,0,1,10.47-1.52C1765.26,507.33,1768.75,507.22,1772,507.22Zm-.94,9.6q-8.82,0-10.59.47l-15.06,62.56a22,22,0,0,0,3.18.41c1.49.12,3.92.17,7.29.17a43.32,43.32,0,0,0,16.77-3.1,35.76,35.76,0,0,0,12.65-8.67,38.85,38.85,0,0,0,8-13.24,48.33,48.33,0,0,0,2.82-16.81q0-10.3-6-16.05T1771.1,516.82Z"/></svg>